<svg t="1752336912452" class="icon" viewBox="0 0 1024 1024" version="1.1" xmlns="http://www.w3.org/2000/svg" p-id="11365" width="200" height="200"><path d="M569.056 67.648a448 448 0 1 0-114.112 888.704 448 448 0 0 0 114.112-888.704z" fill="#FF6C37" p-id="11366"></path><path d="M387.872 540.32a1.696 1.696 0 0 0 1.984 0.896l71.68-15.456-30.176-30.56-42.944 42.976a1.664 1.664 0 0 0-0.544 2.144zM723.52 232.544a66.784 66.784 0 1 0 28.16 127.392l-45.44-45.44a5.6 5.6 0 0 1 0-7.904l59.36-59.328a66.784 66.784 0 0 0-42.08-14.72z" fill="#FFFFFF" p-id="11367"></path><path d="M773.76 254.976L718.112 310.4l43.648 43.648a67.2 67.2 0 0 0 12-99.04z m-111.328 102.272h-0.96a17.472 17.472 0 0 0-3.488 0.32h-0.384a26.272 26.272 0 0 0-3.68 1.056l-0.96 0.448a17.568 17.568 0 0 0-2.56 1.344l-0.992 0.64a23.328 23.328 0 0 0-3.072 2.496l-164.992 165.056 20.448 20.416 174.72-153.344a20.32 20.32 0 0 0 2.688-2.88l0.736-0.96a24.384 24.384 0 0 0 3.104-6.56c0-0.512 0.32-1.056 0.448-1.6a26.24 26.24 0 0 0 0.448-3.36v-3.904c0-0.8 0-1.056-0.224-1.6a21.76 21.76 0 0 0-17.056-17.152h-0.864a23.52 23.52 0 0 0-3.36-0.416z m-223.328 130.016l33.856 33.696 165.44-165.44c5.408-5.28 12.416-8.544 19.904-9.28-29.248-22.4-61.12-16.544-219.2 141.024z m246.72-85.12l-2.016 1.984-174.72 153.28 29.696 29.664c73.664-69.664 139.008-136 147.04-184.928zM249.984 761.312a1.6 1.6 0 0 0 1.44 1.152l76.16 5.248-42.688-42.688-34.56 34.496a1.696 1.696 0 0 0-0.32 1.792z m42.88-44.224l45.024 45.024a3.424 3.424 0 0 0 4.256 0.576 3.36 3.36 0 0 0 1.76-3.904l-7.584-32.32a9.664 9.664 0 0 1 4.992-10.816c78.912-39.552 142.592-80.288 189.312-120.96l-31.36-31.36-67.2 14.464z m196.768-163.232l-16.832-16.832-23.296 23.232a1.12 1.12 0 0 0 0 1.44 1.088 1.088 0 0 0 1.28 0.576z" fill="#FFFFFF" p-id="11368"></path><path d="M775.328 291.104a5.216 5.216 0 1 0-9.28 4.48 15.584 15.584 0 0 1-1.92 16.832 5.184 5.184 0 0 0 8 6.624 25.92 25.92 0 0 0 3.2-27.936z" fill="#FF6C37" p-id="11369"></path></svg>