<svg t="1752254575389" class="icon" viewBox="0 0 1024 1024" version="1.1" xmlns="http://www.w3.org/2000/svg" p-id="15499" width="200" height="200"><path d="M841.215794 817.279489c-7.167996-7.935995-30.079981-32.63998-33.919979-48.895969-3.519998-16.19199 19.839988-17.023989 6.655996-28.223983-2.559998-2.239999 2.815998-2.495998 0-4.095997-0.448-0.256 6.463996-12.479992 6.015997-12.799992-2.175999-1.215999 3.903998-1.535999 7.423995-9.727994 18.367989-54.591966 11.199993-108.991932-7.423995-158.207901-22.783986-60.159962-62.591961-112.76793-92.991942-148.735907-34.175979-43.007973-67.391958-83.839948-66.815959-143.99991 1.023999-91.775943 10.239994-262.399836-151.551905-262.591836-204.799872-0.384-153.599904 206.783871-155.775903 270.399831-3.391998 46.719971-12.799992 83.583948-44.991971 129.343919-37.823976 44.991972-91.007943 117.631926-116.223928 193.407879-11.967993 35.839978-17.599989 72.191955-12.415992 106.559934-12.991992 11.647993-22.783986 29.439982-33.151979 40.447974-8.447995 8.575995-20.607987 11.775993-34.047979 16.57599-13.375992 4.799997-27.967983 12.031992-36.991977 28.991982-4.159997 7.807995-3.199998 15.039991-3.199998 23.679985 0 7.743995 0.448 16.895989 1.599999 24.703985 2.431998 16.19199 3.455998 31.35998 0 41.599974-10.367994 28.799982-8.959994 42.879973-1.599999 57.535964 7.679995 14.591991 22.847986 11.775993 40.191975 15.35999 34.623978 7.231995 80.76795 9.535994 117.759926 29.119982 39.615975 20.799987 77.823951 39.167976 109.823932 31.80798 23.231985-5.247997 42.239974-19.199988 51.839967-40.447975 24.959984-0.192 52.607967-10.751993 96.57594-13.183991 29.823981-2.367999 71.487955 12.031992 114.111929 8.319994 1.279999 4.607997 3.199998 6.079996 5.375996 10.303994v3.199998c16.63999 33.407979 43.327973 46.079971 76.287953 43.455973 33.215979-2.559998 58.431963-25.535984 86.847945-59.327963 27.199983-32.76798 81.727949-40.319975 111.551931-58.303964 14.783991-9.023994 26.815983-20.223987 27.775982-36.607977 0.831999-16.38399-46.527971-24.831984-68.735957-49.599969z m-456.831714 123.647923c-5.375997 70.207956-87.743945 68.799957-150.591906 35.967977-59.775963-31.55198-137.151914-12.991992-152.959905-43.775972-4.799997-9.407994-4.799997-25.407984 5.183997-52.799967v-0.384c4.799997-15.23199 1.215999-31.99998-1.151999-47.80797-2.431998-15.61599-3.647998-30.015981 1.791999-39.999975 6.975996-13.439992 16.959989-18.175989 29.567981-22.591986 20.607987-7.423995 23.615985-6.783996 39.231976-19.839988 10.943993-11.327993 18.943988-25.727984 28.543982-35.967977 10.239994-11.007993 20.031987-16.19199 35.391978-13.759991 16.25599 2.367999 30.207981 13.567992 43.839972 31.99998l39.167976 71.167955c19.007988 39.807975 86.207946 96.76794 81.983949 137.791914z" fill="#000000" p-id="15500"></path><path d="M486.400016 174.591891c19.583988-44.415972 68.415957-43.583973 87.999945-0.832 12.991992 28.415982 7.167996 61.823961-8.575995 80.83195a247.295845 247.295845 0 0 0-25.215984-9.791994c2.175999-2.431998 6.207996-5.439997 7.807995-9.215994 9.599994-23.615985-0.448-54.015966-18.239988-54.591966-14.591991-1.023999-27.775983 21.567987-23.551986 46.015971a142.463911 142.463911 0 0 0-26.047983-8.831994 79.67995 79.67995 0 0 1 5.823996-43.583973zM404.992067 151.615905c20.223987 0 41.599974 28.351982 38.207976 66.943958-7.039996 2.047999-14.207991 4.991997-20.415987 9.215995 2.431998-17.791989-6.591996-40.191975-19.199988-39.167976-16.76799 1.407999-19.583988 42.367974-3.583998 56.191965 1.983999 1.599999 3.839998-0.448-11.775993 11.007993-31.23198-29.247982-20.991987-104.191935 16.76799-104.191935zM352.832099 849.919469c14.207991 0 28.351982-4.415997 33.40798-17.791989 4.543997-12.415992 0-29.823981-14.847991-49.791969-27.007983-36.415977-76.543952-65.023959-76.543952-65.023959-27.007983-16.76799-42.239974-37.375977-49.279969-59.775963-6.975996-22.399986-5.951996-46.591971-0.576-70.399956 10.431993-45.759971 37.247977-90.367944 54.399966-118.399926 4.607997-3.391998 1.599999 6.399996-17.343989 41.599974-17.023989 32.19198-48.831969 106.623933-5.247997 164.799897a345.343784 345.343784 0 0 1 27.583983-123.007923c23.999985-54.783966 74.623953-149.759906 78.655951-225.343859 2.175999 1.599999 9.151994 6.399996 12.351992 8.191995 9.215994 5.375997 16.19199 13.439992 25.215984 20.607987 24.767985 19.967988 56.959964 18.367989 84.799947 2.367998 12.415992-7.039996 22.399986-14.975991 31.80798-17.919989 19.775988-6.271996 35.583978-17.279989 44.607972-30.079981 15.35999 60.799962 51.391968 148.607907 74.367954 191.359881 12.159992 22.847986 36.607977 71.039956 47.16797 129.279919 6.591996-0.256 14.079991 0.768 21.759987 2.751998 27.647983-71.359955-23.359985-148.351907-46.527971-169.791894-9.407994-9.215994-9.791994-13.183992-5.183997-12.991992 25.151984 22.399986 58.367964 67.391958 70.399956 118.015927 5.567997 23.167986 6.591996 47.35997 0.768 71.359955 32.76798 13.631991 71.807955 35.839978 61.439961 69.631957-4.479997-0.256-6.399996 0-8.447994 0 6.399996-20.223987-7.807995-35.199978-45.567972-52.223968-39.231975-17.215989-71.999955-17.215989-76.607952 24.959985 4.479997 25.599984-1.663999 29.759981-5.759997 49.919968-0.064 0.384-36.927977 4.287997-37.055976 4.735997-5.567997 22.399986-7.167996 49.343969-8.767995 79.743951-1.023999 15.42399-0.576 5.951996-10.623993 56.767964-64.19196 45.759971-156.351902 67.071958-231.551856 15.67999a429.247732 429.247732 0 0 0-28.799982-39.231975z" fill="#FFFFFF" p-id="15501"></path><path d="M355.456098 302.591811c0.256 1.215999 0.64 2.303999 1.279999 3.327998a15.103991 15.103991 0 0 0 4.479997 4.479997c1.663999 1.279999 3.391998 2.175999 5.119997 3.327998 9.087994 6.143996 17.023989 13.823991 23.487985 22.719986 7.935995 12.287992 17.663989 23.295985 28.799982 32.703979a60.799962 60.799962 0 0 0 28.863982 10.367994c12.159992 0.895999 24.319985-0.512 35.903978-4.159998 10.879993-3.199998 21.119987-7.679995 30.783981-13.567991 16.63999-13.439992 34.495978-25.087984 53.439966-35.007978 4.351997-1.599999 8.959994-2.751998 13.119992-4.735997a20.671987 20.671987 0 0 0 10.239994-9.151995 44.031972 44.031972 0 0 0 2.495998-13.119991c0.64-4.735997 2.175999-9.343994 3.007998-14.079992a23.679985 23.679985 0 0 0-1.087999-14.079991 18.239989 18.239989 0 0 0-8.319995-8.319995 28.351982 28.351982 0 0 0-11.327993-2.751998 169.279894 169.279894 0 0 0-23.679985 2.303999c-10.495993 0.959999-20.991987-0.384-31.55198 0-13.055992 0.384-25.919984 3.327998-39.039976 3.839997-14.847991 0.64-29.759981-1.663999-44.671972-2.239998a92.351942 92.351942 0 0 0-19.327988 0.895999 44.671972 44.671972 0 0 0-17.919989 6.975996c-4.991997 3.839998-9.663994 8.063995-14.079991 12.543992a35.839978 35.839978 0 0 1-7.807995 5.311997 20.031987 20.031987 0 0 1-9.151994 2.175998 14.719991 14.719991 0 0 0-4.799997 0 6.527996 6.527996 0 0 0-2.559999 1.599999 41.599974 41.599974 0 0 0-5.311996 8.575995" fill="#D99A03" p-id="15502"></path><path d="M388.352077 269.631831c-5.311997 3.199998-10.431993 6.527996-15.42399 10.111994a18.943988 18.943988 0 0 0-6.655996 6.719996 15.74399 15.74399 0 0 0-1.151999 6.591996 59.775963 59.775963 0 0 1 0 6.719996c-0.192 1.535999-0.64 3.007998-0.704 4.543997 0 0.768 0 1.535999 0.192 2.303998a4.799997 4.799997 0 0 0 1.151999 1.983999 5.759996 5.759996 0 0 0 2.559999 1.471999c0.959999 0.32 1.919999 0.448 2.879998 0.704 4.607997 1.279999 8.831994 3.775998 12.223992 7.103995 3.583998 3.199998 6.783996 6.783996 10.495994 9.791994a58.751963 58.751963 0 0 0 36.223977 11.775993c12.927992-0.256 25.791984-2.047999 38.271976-5.311997a231.679855 231.679855 0 0 0 29.055982-8.063995c14.719991-5.503997 28.159982-13.567992 39.999975-23.871985 5.119997-4.863997 10.559993-9.407994 16.31999-13.439991 5.311997-3.391998 11.327993-5.567997 16.639989-8.767995a10.687993 10.687993 0 0 0 1.344-0.959999 4.095997 4.095997 0 0 0 1.087999-1.28 3.839998 3.839998 0 0 0 0-2.815998 7.679995 7.679995 0 0 0-1.151999-2.367998 17.151989 17.151989 0 0 0-2.239999-2.303999 35.711978 35.711978 0 0 0-20.671987-7.167995c-7.551995-0.576-14.911991 0-22.207986-1.408A145.023909 145.023909 0 0 1 506.560003 255.99984a140.799912 140.799912 0 0 0-72.639954-3.903998c-15.99999 3.327998-31.35998 9.279994-45.439972 17.663989" fill="#604405" p-id="15503"></path><path d="M386.688078 251.711843a94.079941 94.079941 0 0 0-20.287987 18.495988 43.839973 43.839973 0 0 0-8.063995 13.439992 101.951936 101.951936 0 0 0-3.263998 16.703989c0 0.831999 0.128 1.535999 0.32 2.303999a5.119997 5.119997 0 0 0 1.215999 1.983999 6.399996 6.399996 0 0 0 3.391998 1.727999c1.279999 0.256 2.559998 0.32 3.775998 0.447999 5.759996 0.895999 11.199993 3.199998 15.80799 6.719996 4.799997 3.327998 9.151994 7.039996 14.079991 10.239994 11.007993 6.527996 23.615985 10.111994 36.479977 10.303993 12.799992 0.256 25.535984-1.023999 38.015976-3.775997 9.983994-1.855999 19.839988-4.607997 29.311982-8.255995 14.335991-6.143996 27.775983-14.079991 39.999975-23.807985 5.759996-4.159997 11.199993-8.639995 16.31999-13.439992 1.727999-1.727999 3.391998-3.455998 5.247997-4.991997a19.007988 19.007988 0 0 1 6.207996-3.583998 23.039986 23.039986 0 0 1 10.879993-0.192 40.319975 40.319975 0 0 0 8.191995 0.96 12.159992 12.159992 0 0 0 4.031997-0.64 8.255995 8.255995 0 0 0 3.327998-2.431998 7.935995 7.935995 0 0 0 1.727999-4.991997 10.239994 10.239994 0 0 0-1.471999-5.119997 17.599989 17.599989 0 0 0-8.319995-6.719996 82.111949 82.111949 0 0 0-14.207991-4.159997 204.351872 204.351872 0 0 1-42.879973-15.67999c-6.719996-3.327998-13.311992-7.039996-20.031988-10.687994a118.207926 118.207926 0 0 0-21.311986-9.471994 83.839948 83.839948 0 0 0-51.327968 2.303999c-18.303989 6.399996-34.623978 17.599989-47.231971 32.38398" fill="#F5BD0C" p-id="15504"></path><path d="M472.064025 230.911856c0.895999 2.943998 5.631996 2.431998 8.383995 3.839997 2.751998 1.279999 4.351997 3.711998 7.039995 3.967998 2.623998 0.192 6.527996-0.895999 6.911996-3.455998 0.448-3.391998-4.479997-5.503997-7.615995-6.719996a16.19199 16.19199 0 0 0-13.119992-0.256c-0.895999 0.512-1.919999 1.663999-1.599999 2.559999z m-45.119972-1.663999c-3.519998-1.151999-9.343994 5.055997-7.615995 8.191995 0.576 0.895999 2.111999 1.983999 3.199998 1.407999 1.023999-0.576 2.943998-4.095997 4.671997-5.311997 1.343999-0.831999 1.087999-3.839998-0.256-4.287997z" fill="#CD8907" p-id="15505"></path><path d="M919.679745 865.471459a62.399961 62.399961 0 0 1-10.367993 17.407989c-10.303994 10.943993-22.719986 19.711988-36.479978 25.791984-23.167986 10.751993-45.759971 22.655986-67.647957 35.839978a278.463826 278.463826 0 0 0-39.999975 32.12798 319.8718 319.8718 0 0 1-32.44798 29.439981 93.439942 93.439942 0 0 1-40.447975 17.151989 96.959939 96.959939 0 0 1-52.607967-7.999995 63.103961 63.103961 0 0 1-29.247982-22.847985 68.799957 68.799957 0 0 1-8.191994-36.479977c0.64-22.399986 3.391998-44.607972 7.999995-66.559959 3.199998-18.239989 6.335996-36.543977 8.319994-55.039965 3.391998-33.599979 3.775998-67.519958 1.152-101.183937a76.735952 76.735952 0 0 1 0-16.95999 21.503987 21.503987 0 0 1 21.887986-20.095987c5.247997-0.064 10.495993 0.384 15.61599 1.279999 12.223992 1.471999 24.383985 3.583998 36.415977 6.399996 7.487995 1.919999 14.783991 4.543997 22.335987 6.591996 12.479992 3.647998 25.535984 4.799997 38.463975 3.519998 13.567992-3.135998 27.391983-5.247997 41.279975-6.463996 5.759996 0.192 11.391993 1.215999 16.895989 2.943998 5.631996 1.535999 10.879993 4.479997 15.103991 8.447995 3.135998 3.263998 5.503997 7.039996 7.039995 11.263993 2.367999 6.207996 3.839998 12.735992 4.351998 19.327988 0.192 5.887996 0.64 11.775993 1.471999 17.599989a57.471964 57.471964 0 0 0 12.991992 25.535984c6.399996 7.039996 13.439992 13.631991 20.927986 19.583987 7.359995 6.207996 14.719991 12.287992 22.655986 17.599989 3.775998 2.559998 7.615995 4.927997 11.135993 7.679996a34.943978 34.943978 0 0 1 8.959995 10.047993c2.943998 5.311997 3.839998 11.583993 2.495998 17.599989M217.408184 667.967583c6.335996 1.279999 12.351992 3.839998 17.599989 7.487995 10.175994 7.679995 18.879988 17.151989 25.855984 27.839982 17.151989 23.679985 33.663979 47.80797 48.63997 72.959955 12.159992 20.287987 23.359985 41.343974 37.439976 60.479962 9.151994 12.479992 19.519988 24.063985 28.735982 36.479977 9.599994 12.159992 16.895989 26.047984 21.503987 40.895975 5.311997 19.647988 3.199998 40.511975-6.015996 58.687963a77.439952 77.439952 0 0 1-28.607983 30.719981c-12.159992 7.295995-26.239984 11.007993-40.511974 10.495993a198.591876 198.591876 0 0 1-64.19196-20.223987c-42.559973-16.959989-88.895944-22.335986-132.735917-35.519978-13.503992-4.031997-26.815983-8.895994-40.319975-12.607992a119.295925 119.295925 0 0 1-17.919989-5.759996 30.911981 30.911981 0 0 1-14.079991-11.775993 26.751983 26.751983 0 0 1-3.519998-14.079991 43.519973 43.519973 0 0 1 2.879998-14.079991c3.263998-9.087994 8.639995-17.343989 12.159993-26.367984 5.439997-14.911991 7.487995-30.783981 6.143996-46.591971-0.768-15.80799-3.519998-31.42398-4.415997-47.23197-0.64-7.039996-0.448-14.079991 0.639999-21.119987a31.67998 31.67998 0 0 1 26.687984-27.135983c6.399996-1.151999 12.927992-1.535999 19.455987-1.279999 6.527996 0.384 12.991992 0.384 19.519988 0a44.671972 44.671972 0 0 0 18.623989-5.119997 44.159972 44.159972 0 0 0 13.439991-12.671992c3.455998-5.119997 6.655996-10.367994 9.535994-15.87199 2.879998-5.439997 6.271996-10.687993 10.047994-15.487991a38.399976 38.399976 0 0 1 14.527991-11.327993 33.407979 33.407979 0 0 1 18.879988-1.791998z" fill="#F5BD0C" p-id="15506"></path><path d="M675.391898 682.367574c4.287997-36.799977 29.823981-45.183972 76.607952-25.023985 28.287982 12.543992 54.143966 28.991982 45.567972 52.223968-5.119997 21.887986-71.231955 70.399956-103.999935 34.815978-14.271991-16.06399-20.351987-36.799977-18.175989-62.079961z" fill="#000000" p-id="15507"></path></svg>